<svg width="129" height="44" viewBox="0 0 129 44" fill="none" xmlns="http://www.w3.org/2000/svg">
<rect width="129" height="44" fill="white"/>
<path d="M26.3281 35H11.791V9.30078H26.3281V12.8516H15.9922V19.8477H25.6777V23.3633H15.9922V31.4316H26.3281V35ZM42.834 12.5352C40.4199 12.5352 38.5215 13.3906 37.1387 15.1016C35.7559 16.8125 35.0645 19.1738 35.0645 22.1855C35.0645 25.3379 35.7266 27.7227 37.0508 29.3398C38.3867 30.957 40.3145 31.7656 42.834 31.7656C43.9238 31.7656 44.9785 31.6602 45.998 31.4492C47.0176 31.2266 48.0781 30.9453 49.1797 30.6055V34.209C47.1641 34.9707 44.8789 35.3516 42.3242 35.3516C38.5625 35.3516 35.6738 34.2148 33.6582 31.9414C31.6426 29.6562 30.6348 26.3926 30.6348 22.1504C30.6348 19.4785 31.1211 17.1406 32.0938 15.1367C33.0781 13.1328 34.4961 11.5977 36.3477 10.5312C38.1992 9.46484 40.373 8.93164 42.8691 8.93164C45.4941 8.93164 47.9199 9.48242 50.1465 10.584L48.6348 14.082C47.7676 13.6719 46.8477 13.3145 45.875 13.0098C44.9141 12.6934 43.9004 12.5352 42.834 12.5352ZM93.8809 35L86.4277 13.5371H86.2871C86.4863 16.7246 86.5859 19.7129 86.5859 22.502V35H82.7715V9.30078H88.6953L95.832 29.7441H95.9375L103.285 9.30078H109.227V35H105.184V22.291C105.184 21.0137 105.213 19.3496 105.271 17.2988C105.342 15.248 105.4 14.0059 105.447 13.5723H105.307L97.5898 35H93.8809Z" fill="#939B62"/>
<ellipse cx="65.5" cy="21" rx="13.5" ry="13" fill="#FF7B54"/>
</svg>
